# xmcd CD database file
#
# Track frame offsets:
#	150
#	32751
#	68730
#	86632
#
# Disc length: 1323 seconds
#
# Revision: 0
# Processed by: cddbd v1.5PL3 Copyright (c) Steve Scherf et al.
# Submitted via: CDex 1.50
#
DISCID=2b052904
DTITLE=Egri János - Jazz
DYEAR=2003
DGENRE=Jazz
TTITLE0=Soft waves
TTITLE1=Waltz for my Wife
TTITLE2=Móci blues
TTITLE3=Chaos
EXTD=YEAR: 2003
EXTT0=
EXTT1=
EXTT2=
EXTT3=
PLAYORDER=
